<?xml version="1.0" encoding="utf-8"?>
<mxfile host="app.diagrams.net" modified="2025-08-20T22:44:42.239923Z" agent="python" version="24.7.9">
  <diagram name="MCP Orchestrations (Azure style)">
    <mxGraphModel dx="1200" dy="800" grid="1" gridSize="10" guides="1" tooltips="1" connect="1" arrows="1" fold="1" page="1" pageScale="1" pageWidth="1654" pageHeight="1169" math="0" shadow="0">
      <root>
        <mxCell id="0"/>
        <mxCell id="1" parent="0"/>
        <mxCell id="10" value="" style="rounded=1;whiteSpace=wrap;html=1;fillColor=#FFF4E5;strokeColor=#F1C69A;" vertex="1" parent="1">
          <mxGeometry x="80" y="260" width="320" height="280" as="geometry"/>
        </mxCell>
        <mxCell id="11" value="MCP Clients" style="rounded=1;whiteSpace=wrap;html=1;fillColor=#FFFFFF;strokeColor=#C8C8C8;fontStyle=1;align=center;" vertex="1" parent="1">
          <mxGeometry x="90" y="270" width="300" height="34" as="geometry"/>
        </mxCell>
        <mxCell id="12" value="VS Code &amp; Copilot" style="rounded=1;whiteSpace=wrap;html=1;fillColor=#FFFFFF;strokeColor=#C8C8C8;fontSize=12;" vertex="1" parent="1">
          <mxGeometry x="110" y="320" width="260" height="50" as="geometry"/>
        </mxCell>
        <mxCell id="13" value="MCP Inspector" style="rounded=1;whiteSpace=wrap;html=1;fillColor=#FFFFFF;strokeColor=#C8C8C8;fontSize=12;" vertex="1" parent="1">
          <mxGeometry x="110" y="380" width="260" height="50" as="geometry"/>
        </mxCell>
        <mxCell id="14" value="" style="rounded=1;whiteSpace=wrap;html=1;fillColor=#E8F0FE;strokeColor=#9BB8F0;" vertex="1" parent="1">
          <mxGeometry x="470" y="200" width="380" height="360" as="geometry"/>
        </mxCell>
        <mxCell id="15" value="AI Gateway" style="rounded=1;whiteSpace=wrap;html=1;fillColor=#FFFFFF;strokeColor=#C8C8C8;fontStyle=1;align=center;" vertex="1" parent="1">
          <mxGeometry x="480" y="210" width="360" height="34" as="geometry"/>
        </mxCell>
        <mxCell id="16" value="Azure API Management
(Remote MCP Proxy)" style="rounded=1;whiteSpace=wrap;html=1;fillColor=#FFFFFF;strokeColor=#C8C8C8;fontSize=12;" vertex="1" parent="1">
          <mxGeometry x="500" y="260" width="320" height="70" as="geometry"/>
        </mxCell>
        <mxCell id="17" value="MCP Endpoint  /sse" style="rounded=1;whiteSpace=wrap;html=1;fillColor=#FFFFFF;strokeColor=#C8C8C8;fontSize=12;" vertex="1" parent="1">
          <mxGeometry x="500" y="350" width="320" height="50" as="geometry"/>
        </mxCell>
        <mxCell id="18" value="MCP Endpoint  /message" style="rounded=1;whiteSpace=wrap;html=1;fillColor=#FFFFFF;strokeColor=#C8C8C8;fontSize=12;" vertex="1" parent="1">
          <mxGeometry x="500" y="410" width="320" height="50" as="geometry"/>
        </mxCell>
        <mxCell id="19" value="OAuth" style="rounded=1;whiteSpace=wrap;html=1;fillColor=#FFFFFF;strokeColor=#C8C8C8;fontSize=12;" vertex="1" parent="1">
          <mxGeometry x="500" y="470" width="320" height="50" as="geometry"/>
        </mxCell>
        <mxCell id="20" value="" style="rounded=1;whiteSpace=wrap;html=1;fillColor=#E6F4EA;strokeColor=#9AD0AC;" vertex="1" parent="1">
          <mxGeometry x="900" y="220" width="320" height="320" as="geometry"/>
        </mxCell>
        <mxCell id="21" value="MCP Server" style="rounded=1;whiteSpace=wrap;html=1;fillColor=#FFFFFF;strokeColor=#C8C8C8;fontStyle=1;align=center;" vertex="1" parent="1">
          <mxGeometry x="910" y="230" width="300" height="34" as="geometry"/>
        </mxCell>
        <mxCell id="22" value="Azure Function" style="rounded=1;whiteSpace=wrap;html=1;fillColor=#FFFFFF;strokeColor=#C8C8C8;fontSize=12;" vertex="1" parent="1">
          <mxGeometry x="930" y="280" width="260" height="50" as="geometry"/>
        </mxCell>
        <mxCell id="23" value="MCP Tool" style="rounded=1;whiteSpace=wrap;html=1;fillColor=#FFFFFF;strokeColor=#C8C8C8;fontSize=12;" vertex="1" parent="1">
          <mxGeometry x="930" y="340" width="260" height="50" as="geometry"/>
        </mxCell>
        <mxCell id="24" value="MCP Tool" style="rounded=1;whiteSpace=wrap;html=1;fillColor=#FFFFFF;strokeColor=#C8C8C8;fontSize=12;" vertex="1" parent="1">
          <mxGeometry x="930" y="400" width="260" height="50" as="geometry"/>
        </mxCell>
        <mxCell id="25" value="MCP Tool" style="rounded=1;whiteSpace=wrap;html=1;fillColor=#FFFFFF;strokeColor=#C8C8C8;fontSize=12;" vertex="1" parent="1">
          <mxGeometry x="930" y="460" width="260" height="50" as="geometry"/>
        </mxCell>
        <mxCell id="26" value="Microsoft Entra ID" style="rounded=1;whiteSpace=wrap;html=1;fillColor=#EDE7F6;strokeColor=#C5B8E6;" vertex="1" parent="1">
          <mxGeometry x="560" y="600" width="220" height="70" as="geometry"/>
        </mxCell>
        <mxCell id="27" value="" style="endArrow=block;rounded=1;strokeWidth=2;" edge="1" parent="1" source="12" target="16">
          <mxGeometry x="0" y="0" width="0" height="0" relative="1" as="geometry"/>
        </mxCell>
        <mxCell id="28" value="" style="endArrow=block;rounded=1;strokeWidth=2;" edge="1" parent="1" source="13" target="16">
          <mxGeometry x="0" y="0" width="0" height="0" relative="1" as="geometry"/>
        </mxCell>
        <mxCell id="29" value="" style="endArrow=block;rounded=1;strokeWidth=2;" edge="1" parent="1" source="17" target="23">
          <mxGeometry x="0" y="0" width="0" height="0" relative="1" as="geometry"/>
        </mxCell>
        <mxCell id="30" value="" style="endArrow=block;rounded=1;strokeWidth=2;" edge="1" parent="1" source="18" target="22">
          <mxGeometry x="0" y="0" width="0" height="0" relative="1" as="geometry"/>
        </mxCell>
        <mxCell id="31" value="" style="endArrow=block;rounded=1;dashed=1;strokeWidth=2;" edge="1" parent="1" source="16" target="19">
          <mxGeometry x="0" y="0" width="0" height="0" relative="1" as="geometry"/>
        </mxCell>
        <mxCell id="32" value="" style="endArrow=block;rounded=1;strokeWidth=2;" edge="1" parent="1" source="19" target="26">
          <mxGeometry x="0" y="0" width="0" height="0" relative="1" as="geometry"/>
        </mxCell>
        <mxCell id="33" value="" style="endArrow=open;dashed=1;rounded=1;strokeWidth=1;" edge="1" parent="1" source="11" target="26">
          <mxGeometry x="0" y="0" width="0" height="0" relative="1" as="geometry"/>
        </mxCell>
      </root>
    </mxGraphModel>
  </diagram>
</mxfile>
